<?xml version="1.0" encoding="utf-8"?>
<!-- Generator: Adobe Illustrator 19.0.0, SVG Export Plug-In . SVG Version: 6.00 Build 0)  -->
<svg version="1.1" id="Layer_1" xmlns="http://www.w3.org/2000/svg" xmlns:xlink="http://www.w3.org/1999/xlink" x="0px" y="0px"
	 viewBox="0 0 99.1 27.2" style="enable-background:new 0 0 99.1 27.2;" xml:space="preserve">
<style type="text/css">
	.st0{fill:#EE4036;}
</style>
<g id="XMLID_2_">
	<g id="XMLID_3_">
		<path id="XMLID_10_" class="st0" d="M6.3,24.8c-0.1,0-0.3-0.1-0.5-0.2L0,19c-0.3-0.3-0.5-0.5-0.6-0.6C-0.7,18.2-0.9,18-1,17.8
			c-0.1-0.2-0.2-0.4-0.2-0.7v-0.8c0-0.3,0.1-0.5,0.2-0.7c0.2-0.2,0.3-0.4,0.4-0.5c0.1-0.1,0.3-0.3,0.6-0.6l5.8-5.8
			c0.2-0.1,0.3-0.2,0.5-0.2s0.4,0.1,0.5,0.2C6.9,9,7,9.2,7,9.4v0.9c0,0.1,0,0.2,0,0.3c0,0.1-0.1,0.2-0.1,0.2c0,0.1-0.1,0.2-0.1,0.2
			c-0.1,0.1-0.1,0.2-0.1,0.2c0,0.1-0.1,0.1-0.2,0.2c-0.1,0.1-0.2,0.2-0.2,0.2s-0.1,0.1-0.2,0.2C6.1,11.8,6,11.8,6,11.9l-4.5,4.6
			c-0.1,0.1-0.2,0.2-0.2,0.3s0.1,0.2,0.2,0.3L6,21.6c0.1,0.1,0.1,0.1,0.2,0.2c0.1,0.1,0.2,0.2,0.2,0.2C6.5,21.9,6.5,22,6.6,22
			c0.1,0.1,0.1,0.1,0.2,0.2c0.1,0.1,0.1,0.1,0.1,0.2c0.1,0.1,0.1,0.2,0.1,0.2c0,0.1,0.1,0.2,0.1,0.2c0,0.1,0,0.2,0,0.3v1
			c0,0.2-0.1,0.4-0.2,0.5C6.6,24.7,6.5,24.8,6.3,24.8z"/>
		<path id="XMLID_9_" class="st0" d="M11.9,30.6c-0.1,0-0.2-0.2-0.2-0.4v-0.1c0-0.1,0-0.1,0-0.1l4.7-29.4C16.5,0.2,16.6,0,16.8,0
			h2.8c0.2,0,0.2,0.2,0.2,0.4c0,0.1,0,0.2,0,0.2L15,30c-0.1,0.4-0.2,0.6-0.4,0.6H11.9z"/>
		<path id="XMLID_8_" class="st0" d="M24.2,27.2c-0.2,0-0.3-0.1-0.4-0.2c-0.1-0.1-0.1-0.3-0.1-0.6V4.2c0-0.3,0.1-0.6,0.1-0.6
			c0.1-0.1,0.2-0.2,0.4-0.2h2.9c0.2,0,0.3,0.1,0.4,0.2c0.1,0.1,0.1,0.3,0.1,0.6V13c0,0.1,0,0.2,0.1,0.3c0.1,0.1,0.1,0.1,0.2,0.1h6
			c0.1,0,0.1-0.1,0.2-0.1c0.1-0.1,0.1-0.2,0.1-0.3V4.2c0-0.3,0.1-0.5,0.2-0.6c0.1-0.1,0.2-0.2,0.4-0.2h3c0.2,0,0.3,0.1,0.4,0.2
			C38,3.7,38,3.9,38,4.2v22.2c0,0.3-0.1,0.6-0.1,0.6c-0.1,0.1-0.2,0.2-0.4,0.2h-3c-0.1,0-0.2,0-0.3-0.1c-0.1-0.1-0.1-0.1-0.2-0.2
			C34,26.8,34,26.6,34,26.4V16.3c0-0.3-0.1-0.4-0.2-0.4h-6c-0.2,0-0.2,0.1-0.2,0.4v10.1c0,0.3-0.1,0.5-0.2,0.6
			c-0.1,0.1-0.2,0.2-0.4,0.2H24.2z"/>
		<path id="XMLID_7_" class="st0" d="M45.4,27.2c-0.2,0-0.3-0.1-0.4-0.2c-0.1-0.1-0.2-0.3-0.2-0.6V6.5c0-0.3-0.1-0.4-0.2-0.4h-3.5
			c-0.2,0-0.2,0-0.3,0c-0.1,0-0.1-0.1-0.2-0.2c-0.1-0.1-0.1-0.3-0.1-0.5V4.2c0-0.3,0.1-0.5,0.1-0.6c0.1-0.1,0.2-0.2,0.4-0.2h11.3
			c0.2,0,0.3,0.1,0.4,0.2c0.1,0.1,0.1,0.3,0.1,0.6v1.3c0,0.3-0.1,0.5-0.1,0.5c-0.1,0.1-0.2,0.1-0.4,0.1H49c-0.2,0-0.2,0.2-0.2,0.4
			v19.9c0,0.3-0.1,0.6-0.2,0.7c-0.1,0.1-0.2,0.2-0.4,0.2L45.4,27.2L45.4,27.2z"/>
		<path id="XMLID_6_" class="st0" d="M55.8,27.2c-0.3,0-0.5-0.3-0.5-0.8v-0.1l0.9-21.9c0-0.6,0.2-0.9,0.5-0.9h3.2
			c0.2,0,0.4,0.1,0.5,0.2c0.2,0.1,0.3,0.3,0.3,0.6l3.4,15.6c0,0.1,0.1,0.1,0.1,0.1c0.1,0,0.1,0,0.1,0c0.1,0,0.1-0.1,0.1-0.1
			l3.4-15.5c0.1-0.5,0.4-0.8,0.8-0.8h3.2c0.3,0,0.5,0.4,0.5,0.9L73,26.3v0.1c0,0.5-0.2,0.8-0.5,0.8h-2.2c-0.3,0-0.5-0.3-0.5-0.9
			l-0.6-17c0-0.1,0-0.1-0.1-0.1c-0.1,0-0.1,0-0.1,0.1l-3.6,17.1c-0.1,0.5-0.4,0.8-0.7,0.8h-1.3c-0.3,0-0.6-0.3-0.7-0.8l-3.5-17
			c0-0.1-0.1-0.1-0.1-0.1c0,0,0,0.1,0,0.1l-0.7,16.9c0,0.6-0.2,0.9-0.5,0.9L55.8,27.2L55.8,27.2z"/>
		<path id="XMLID_5_" class="st0" d="M77.8,27.2c-0.2,0-0.3-0.1-0.4-0.2c-0.1-0.1-0.1-0.3-0.1-0.6V4.2c0-0.3,0.1-0.6,0.1-0.6
			c0.1-0.1,0.2-0.2,0.4-0.2h3c0.2,0,0.3,0.1,0.4,0.2c0.1,0.1,0.1,0.3,0.1,0.6v20c0,0.3,0.1,0.4,0.3,0.4h5.2c0.2,0,0.3,0.1,0.4,0.1
			c0.1,0.1,0.1,0.3,0.1,0.5v1.3c0,0.3-0.1,0.5-0.1,0.6c-0.1,0.1-0.2,0.1-0.4,0.1H77.8z"/>
		<path id="XMLID_4_" class="st0" d="M91.7,24.8c-0.2,0-0.4-0.1-0.5-0.2c-0.1-0.2-0.2-0.3-0.2-0.5v-0.9c0-0.1,0-0.2,0-0.2
			c0-0.1,0-0.2,0.1-0.2c0-0.1,0.1-0.1,0.1-0.2c0.1-0.1,0.1-0.1,0.1-0.2c0-0.1,0.1-0.1,0.1-0.2c0.1-0.1,0.1-0.1,0.1-0.2
			c0-0.1,0.1-0.1,0.1-0.2c0.1-0.1,0.1-0.1,0.2-0.2c0.1,0,0.1-0.1,0.2-0.2c0.1-0.1,0.2-0.1,0.2-0.2l4.5-4.6c0.1-0.1,0.2-0.2,0.2-0.3
			s-0.1-0.2-0.2-0.3L92,11.9c-0.1-0.1-0.1-0.1-0.3-0.2c-0.1-0.1-0.2-0.2-0.2-0.2c-0.1-0.1-0.1-0.1-0.2-0.2c-0.1-0.1-0.2-0.2-0.2-0.2
			s-0.1-0.1-0.1-0.2c-0.1-0.1-0.1-0.2-0.1-0.3c0-0.1,0-0.2,0-0.3V9.3c0-0.2,0.1-0.4,0.2-0.5c0.1-0.1,0.3-0.2,0.5-0.2
			c0.2,0,0.3,0.1,0.5,0.2l5.8,5.7c0.3,0.3,0.5,0.5,0.6,0.6c0.1,0.1,0.2,0.3,0.3,0.5c0.1,0.2,0.2,0.5,0.2,0.7V17c0,0.1,0,0.2,0,0.3
			c0,0.1-0.1,0.2-0.1,0.2C99,17.5,99,17.6,99,17.6c0,0.1-0.1,0.1-0.1,0.2c-0.1,0.1-0.1,0.2-0.1,0.2s-0.1,0.1-0.2,0.2
			c-0.1,0.1-0.2,0.2-0.2,0.2s-0.1,0.1-0.2,0.2S98,18.7,98,18.8l-5.8,5.8C92,24.7,91.9,24.8,91.7,24.8z"/>
	</g>
</g>
</svg>
